<?xml version="1.0" standalone="no"?><!DOCTYPE svg PUBLIC "-//W3C//DTD SVG 1.1//EN" "http://www.w3.org/Graphics/SVG/1.1/DTD/svg11.dtd"><svg t="1763107055915" class="icon" viewBox="0 0 1024 1024" version="1.1" xmlns="http://www.w3.org/2000/svg" p-id="6311" xmlns:xlink="http://www.w3.org/1999/xlink" width="200" height="200"><path d="M512 10.24C233.759 10.24 8.192 235.807 8.192 514.048S233.759 1017.856 512 1017.856s503.808-225.567 503.808-503.808S790.241 10.24 512 10.24z m239.268 410.399s-292.66 281.313-298.476 287.539c-21.094 20.07-43.663 21.094-65.843 0 0 0-108.79-110.797-115.753-120.73-10.28-14.684-23.92-50.708 0-73.482 22.385-21.279 55.562-1.413 65.843 5.427s82.821 57.815 82.821 57.815S671.13 369.336 685.425 357.99c14.295-11.325 45.588-19.25 65.843 0 20.255 19.272 14.152 46.388 0 62.649z" fill="#55BB11" p-id="6312"></path></svg>